<svg width="600" height="600" xmlns="http://www.w3.org/2000/svg" clip-rule="evenodd">

 <g>
  <title>background</title>
  <rect fill="none" id="canvas_background" height="602" width="602" y="-1" x="-1"/>
 </g>
 <g>
  <title>Layer 1</title>
  <path stroke="null" id="svg_1" fill="#1e88e5" fill-rule="nonzero" d="m478.745677,25.07954c49.85905,0.427944 95.531421,40.481565 96.014499,88.495448c0.415984,124.492254 0.415984,248.982035 0,373.474289c-0.461608,45.891476 -43.112056,88.037819 -96.014499,88.495448c-118.92583,0.338892 -237.854345,0.338892 -356.780175,0c-49.832212,-0.430418 -95.528737,-40.481565 -96.014499,-88.495448c-0.418668,-124.492254 -0.418668,-248.982035 0,-373.474289c0.464292,-45.896423 43.106689,-88.042766 96.014499,-88.495448c118.92583,-0.341366 237.854345,-0.341366 356.780175,0zm-356.154857,29.681534c-33.340455,0.096473 -64.107176,26.488029 -64.434596,58.999439c-0.418668,124.48978 -1.25332,248.986982 0.002684,373.471815c0.509916,30.31974 28.7861,58.131182 63.605312,58.625915c119.054651,1.029046 238.128089,1.029046 357.18274,0c32.908368,-0.467523 63.063191,-26.636449 63.605312,-58.625915c1.25332,-124.608516 1.25332,-249.231875 0,-373.840391c-0.5126,-30.314793 -28.896135,-58.128708 -63.605312,-58.625915c-118.780907,-1.019151 -237.572549,-0.004947 -356.35614,-0.004947z"/>
  <path stroke="null" id="svg_2" fill="#aad4ff" d="m298.977066,361.463342c-45.399463,0.303098 -90.639154,13.527956 -131.877967,37.296598c-8.240321,4.749271 -14.710013,13.686191 -14.906992,24.697992c-0.144452,13.400923 -0.170716,26.775102 -0.102867,40.155966c0.205734,13.412066 9.529444,25.484708 20.803254,25.749919c84.594063,0.66414 169.194693,0.66414 253.790945,0c10.871096,-0.256296 20.588765,-11.796289 20.803254,-25.749919c0.067849,-13.409837 0.142263,-26.824132 -0.002189,-40.233969c-0.323922,-17.994188 -17.568408,-26.955623 -34.211011,-35.030052c-35.662096,-17.307761 -73.841156,-26.634696 -112.144969,-26.886534c-0.717882,-0.002229 -1.435764,-0.002229 -2.151457,0z"/>
  <path stroke="null" id="svg_3" fill="#1e88e5" d="m301.271208,327.400925c48.873277,0.313923 97.650729,14.041702 141.959447,38.872749c18.155402,10.17281 31.746245,30.608931 32.019698,55.389071c0.072453,19.870493 2.281111,40.645991 -2.580273,58.030551c-6.446009,23.046492 -25.283875,39.868253 -45.86997,40.340552c-84.447863,0.647643 -168.898063,0.005656 -253.345926,0.005656c-25.484875,-0.195141 -48.532046,-26.598632 -49.034544,-58.627288c-0.140232,-26.819227 -2.337204,-55.417352 10.218257,-75.222799c8.818272,-13.90878 23.07288,-20.823576 36.969896,-27.701606c40.996899,-20.289058 84.936338,-31.180215 129.663416,-31.086886zm-2.246053,33.937649c-45.299692,0.296954 -90.43578,13.196089 -131.584597,36.381159c-8.222284,4.632489 -14.675305,13.348809 -14.873968,24.092902c-0.142569,13.071651 -0.170616,26.117849 -0.1005,39.169703c0.203337,13.080135 9.507747,24.859328 20.756711,25.116688c84.405793,0.647643 168.816261,0.647643 253.222054,0c10.846965,-0.248876 20.544025,-11.507691 20.756711,-25.116688c0.070116,-13.082964 0.142569,-26.165927 0,-39.246063c-0.322534,-17.554249 -17.531369,-26.293193 -34.134868,-34.172384c-35.581597,-16.878324 -73.675689,-25.97927 -111.895989,-26.225318c-0.715184,0 -1.430369,0 -2.145553,0z"/>
  <path stroke="null" id="svg_4" fill="#1e88e5" fill-rule="nonzero" d="m300.772801,69.392406c51.849805,0.50723 100.975431,41.750168 110.877856,94.916222c12.361667,66.373297 -40.080352,138.714572 -110.877856,139.180068c-54.07528,0.353135 -105.22378,-44.112961 -113.171902,-99.978892c-9.007871,-63.317075 40.388926,-129.648638 105.161442,-133.883046c2.664958,-0.173357 5.336151,-0.243984 8.01046,-0.234353zm-1.228063,38.5238c-34.404458,0.337083 -66.9076,27.178541 -74.098312,62.215937c-7.249934,35.319904 12.511279,74.530712 44.942732,88.668946c35.573299,15.505829 81.395,-2.064234 98.379045,-38.347232c21.628242,-46.206088 -11.80374,-111.256734 -67.244226,-112.524809c-0.660785,-0.009631 -1.318453,-0.016052 -1.979238,-0.012841z"/>
 </g>
</svg>