<?xml version="1.0" ?><!DOCTYPE svg  PUBLIC '-//W3C//DTD SVG 1.1//EN'  'http://www.w3.org/Graphics/SVG/1.1/DTD/svg11.dtd'><svg enable-background="new 0 0 512 512" height="512px" id="Calque_1" version="1.1" viewBox="0 0 512 512" width="512px" xml:space="preserve" xmlns="http://www.w3.org/2000/svg" xmlns:xlink="http://www.w3.org/1999/xlink"><g><path d="   M420,256c0,60.084-32.31,112.616-80.5,141.181C315.039,411.677,286.493,420,256,420c-30.494,0-59.04-8.322-83.5-22.819   C124.309,368.616,92,316.084,92,256c0-90.577,73.423-164,164-164C346.576,92,420,165.423,420,256z" fill="none" stroke="#000000" stroke-linecap="round" stroke-linejoin="round" stroke-miterlimit="10" stroke-width="7"/><path d="   M339.5,348.427v48.754C315.039,411.677,286.493,420,256,420c-30.494,0-59.04-8.322-83.5-22.819v-48.753   c0-46.122,37.387-83.499,83.5-83.499C302.113,264.928,339.5,302.305,339.5,348.427z" fill="none" stroke="#000000" stroke-dasharray="32.713,20.4457,1.0223,0,3.0669,32.7131" stroke-linecap="round" stroke-linejoin="round" stroke-miterlimit="10" stroke-width="7"/><circle cx="256" cy="212.67" fill="none" r="30.335" stroke="#000000" stroke-linecap="round" stroke-linejoin="round" stroke-miterlimit="10" stroke-width="7"/></g><g><circle cx="256.001" cy="256" fill="none" r="218.662" stroke="#010101" stroke-dasharray="32.7131,20.4457,1.0223,0,3.0669,32.7131" stroke-linecap="round" stroke-linejoin="round" stroke-width="7"/></g></svg>